<svg width="24" height="24" viewBox="0 0 24 24" fill="none" xmlns="http://www.w3.org/2000/svg"><g fill="#668c0a"><path fill-rule="evenodd" clip-rule="evenodd" d="M5.82 2.339A.613.613 0 0 1 6.368 2h11.264c.232 0 .445.131.548.339l1.252 2.503a.612.612 0 0 1 .065.274v15.658h1.89a.613.613 0 1 1 0 1.226H2.613a.613.613 0 1 1 0-1.226h1.89V5.116c0-.095.022-.189.065-.274L5.82 2.339Zm-.091 18.435h3.78V19.51a2.49 2.49 0 1 1 4.981 0v1.264h3.781V5.73H5.73v15.045Zm.379-16.27h11.784l-.638-1.278H6.746l-.638 1.277Zm7.157 16.27V19.51a1.265 1.265 0 0 0-2.53 0v1.264h2.53Z"/><path d="M8.96 7.627a.726.726 0 1 1-1.45 0 .726.726 0 0 1 1.45 0ZM8.96 11.353a.726.726 0 1 1-1.45 0 .726.726 0 0 1 1.45 0ZM8.235 15.804a.726.726 0 1 0 0-1.45.726.726 0 0 0 0 1.45ZM16.49 7.627a.726.726 0 1 1-1.45 0 .726.726 0 0 1 1.45 0ZM15.765 12.078a.725.725 0 1 0 0-1.45.725.725 0 0 0 0 1.45ZM16.49 15.079a.725.725 0 1 1-1.45 0 .725.725 0 0 1 1.45 0ZM12 8.353a.726.726 0 1 0 0-1.451.726.726 0 0 0 0 1.45ZM12.726 11.353a.725.725 0 1 1-1.451 0 .725.725 0 0 1 1.45 0ZM12 15.804a.725.725 0 1 0 0-1.45.725.725 0 0 0 0 1.45Z"/></g></svg>
