<svg width="24" height="25" viewBox="0 0 24 25" fill="none" xmlns="http://www.w3.org/2000/svg">
<path d="M2.375 3.5C2.375 3.15482 2.65482 2.875 3 2.875H8.625C9.66053 2.875 10.5 3.71447 10.5 4.75V16.625C10.5 16.9702 10.2202 17.25 9.875 17.25C9.52982 17.25 9.25 16.9702 9.25 16.625V16H3C2.65482 16 2.375 15.7202 2.375 15.375C2.375 15.0298 2.65482 14.75 3 14.75H9.25V4.75C9.25 4.40482 8.97018 4.125 8.625 4.125H3C2.65482 4.125 2.375 3.84518 2.375 3.5Z" fill="#002E1F"/>
<path fill-rule="evenodd" clip-rule="evenodd" d="M2.375 19.4375C2.375 18.2294 3.35438 17.25 4.5625 17.25C5.17459 17.25 5.72796 17.5014 6.125 17.9066C6.52204 17.5014 7.07541 17.25 7.6875 17.25C8.56012 17.25 9.31341 17.761 9.66449 18.5H11.75L11.75 5.00778C11.7498 4.43798 12.0087 3.89868 12.4537 3.54272C12.8986 3.18677 13.4813 3.05246 14.0371 3.1777C14.7139 3.32947 15.5253 3.54485 16.2265 3.82791C16.5769 3.96937 16.9181 4.13495 17.2069 4.32904C17.4878 4.51783 17.7701 4.76719 17.9341 5.09571C17.9377 5.10283 17.9411 5.11002 17.9444 5.11728C18.2753 5.84838 18.4913 6.62527 18.5857 7.42053C20.413 7.94566 21.75 9.62962 21.75 11.6259V16.4774C22.1336 16.8208 22.375 17.3197 22.375 17.875C22.375 18.9105 21.5355 19.75 20.5 19.75H19.8528C19.7012 20.8101 18.7895 21.625 17.6875 21.625C16.5855 21.625 15.6738 20.8101 15.5222 19.75H9.85285C9.70121 20.8101 8.78952 21.625 7.6875 21.625C7.07541 21.625 6.52204 21.3736 6.125 20.9684C5.72796 21.3736 5.17459 21.625 4.5625 21.625C3.35438 21.625 2.375 20.6456 2.375 19.4375ZM8.59973 19.2204C8.6028 19.2404 8.60682 19.2602 8.61174 19.2795C8.62046 19.3309 8.625 19.3837 8.625 19.4375C8.625 19.9553 8.20527 20.375 7.6875 20.375C7.16973 20.375 6.75 19.9553 6.75 19.4375C6.75 18.9197 7.16973 18.5 7.6875 18.5C8.13053 18.5 8.50179 18.8073 8.59973 19.2204ZM16.7655 19.2669C16.7681 19.2558 16.7704 19.2444 16.7724 19.233C16.8657 18.8136 17.24 18.5 17.6875 18.5C18.2053 18.5 18.625 18.9197 18.625 19.4375C18.625 19.9553 18.2053 20.375 17.6875 20.375C17.1697 20.375 16.75 19.9553 16.75 19.4375C16.75 19.3793 16.7553 19.3223 16.7655 19.2669ZM15.7105 18.5H13L13 17.25H17.6875C16.8149 17.25 16.0616 17.761 15.7105 18.5ZM19.6645 18.5C19.3134 17.761 18.5601 17.25 17.6875 17.25H20.5C20.6094 17.25 20.7122 17.2781 20.8016 17.3275C20.8088 17.3318 20.816 17.336 20.8234 17.3401C21.0042 17.4496 21.125 17.6482 21.125 17.875C21.125 18.2202 20.8452 18.5 20.5 18.5H19.6645ZM5.5 19.4375C5.5 18.9197 5.08027 18.5 4.5625 18.5C4.04473 18.5 3.625 18.9197 3.625 19.4375C3.625 19.9553 4.04473 20.375 4.5625 20.375C5.08027 20.375 5.5 19.9553 5.5 19.4375ZM13.2346 4.5188C13.3829 4.40013 13.5772 4.35537 13.7625 4.39716C14.4123 4.54289 15.149 4.74098 15.7585 4.98703C16.0635 5.11015 16.3186 5.23812 16.5097 5.36653C16.6998 5.49432 16.7825 5.59323 16.8121 5.64705C17.0425 6.15949 17.2059 6.69854 17.2989 7.25085H16.158C16.147 7.25029 16.1361 7.25 16.125 7.25C16.1139 7.25 16.103 7.25029 16.092 7.25085H13V5.00747C12.9999 4.8175 13.0862 4.63748 13.2346 4.5188ZM20.5 11.6259V12.875H16.75V8.50085H17.375C19.1009 8.50085 20.5 9.89996 20.5 11.6259ZM20.5 14.125H13V16H20.5V14.125ZM15.5 8.50085V12.875H13V8.50085H15.5Z" fill="#002E1F"/>
</svg>
