<svg width="24" height="24" viewBox="0 0 24 24" fill="none" xmlns="http://www.w3.org/2000/svg">
<path fill-rule="evenodd" clip-rule="evenodd" d="M14.2164 6.20409C15.331 5.47991 16.8004 5.63494 17.7394 6.57577C18.0635 6.90052 18.2938 7.28829 18.4267 7.70267C17.9325 7.85841 17.4165 7.93791 16.8963 7.9375L16.895 7.9375C15.9437 7.93878 15.0114 7.67119 14.2055 7.16558C13.9131 6.98212 13.5274 7.07043 13.3439 7.36282C13.1605 7.65521 13.2488 8.04096 13.5412 8.22441C14.5464 8.85512 15.7093 9.18897 16.896 9.1875C17.4494 9.18788 17.999 9.11567 18.5312 8.97374C18.4734 9.36586 18.332 9.75024 18.1041 10.0995C17.3777 11.2127 15.9711 11.6653 14.7318 11.1848C14.41 11.06 14.0479 11.2197 13.9231 11.5415C13.7983 11.8634 13.9581 12.2254 14.2799 12.3502C14.7427 12.5297 15.2216 12.619 15.6955 12.6251C15.2508 12.6286 14.8038 12.6795 14.3619 12.7796C14.0253 12.8559 13.8142 13.1906 13.8904 13.5273C13.9667 13.8639 14.3015 14.075 14.6381 13.9987C16.1216 13.6626 17.6774 14.0193 18.8664 14.968C20.0553 15.9167 20.7484 17.3546 20.75 18.8756C20.7504 19.2208 21.0305 19.5003 21.3756 19.5C21.7208 19.4996 22.0004 19.2195 22 18.8743C21.998 16.9734 21.1319 15.1765 19.646 13.9909C18.5412 13.1093 17.1828 12.6368 15.7967 12.6252C17.1199 12.6091 18.3922 11.9453 19.1509 10.7826C19.6921 9.95323 19.8957 8.98682 19.7798 8.05891C19.778 8.02875 19.7739 7.99851 19.7675 7.96841C19.6437 7.13002 19.2581 6.32794 18.6241 5.69276C17.2679 4.33378 15.1454 4.10986 13.5353 5.1559C13.2459 5.34396 13.1637 5.73106 13.3518 6.02051C13.5398 6.30996 13.9269 6.39215 14.2164 6.20409ZM3.25 18.875C3.25 16.1136 5.48858 13.875 8.25 13.875C11.0114 13.875 13.25 16.1136 13.25 18.875C13.25 19.2202 13.5298 19.5 13.875 19.5C14.2202 19.5 14.5 19.2202 14.5 18.875C14.5 15.4232 11.7018 12.625 8.25 12.625C9.46165 12.625 10.5494 12.0946 11.2937 11.2532C11.4292 11.7027 11.6219 12.1355 11.869 12.5405C12.0487 12.8352 12.4334 12.9283 12.728 12.7485C13.0227 12.5688 13.1158 12.1842 12.9361 11.8895C12.4997 11.1742 12.2822 10.3468 12.3105 9.50943C12.3107 9.5024 12.3108 9.49536 12.3108 9.48833V8.67951C12.3119 8.64064 12.3125 8.60163 12.3125 8.5625C12.3125 6.31884 10.4937 4.5 8.25 4.5C6.00634 4.5 4.1875 6.31884 4.1875 8.5625C4.1875 8.66109 4.19101 8.75886 4.19792 8.85569L4.18841 9.47203C4.18825 9.48233 4.18835 9.49263 4.1887 9.50293C4.2172 10.3403 3.99999 11.1676 3.56386 11.883C3.38418 12.1777 3.47743 12.5623 3.77216 12.742C4.06688 12.9217 4.45146 12.8284 4.63115 12.5337C4.87718 12.1301 5.06925 11.699 5.20449 11.2512C5.94886 12.0937 7.03738 12.625 8.25 12.625C4.79822 12.625 2 15.4232 2 18.875C2 19.2202 2.27982 19.5 2.625 19.5C2.97018 19.5 3.25 19.2202 3.25 18.875ZM11.0331 8.15434C10.8354 6.79447 9.66468 5.75 8.25 5.75C6.83659 5.75 5.66669 6.7926 5.46743 8.15068C6.35855 7.99649 7.177 7.53899 7.77739 6.84518C7.89619 6.70789 8.06882 6.62905 8.25038 6.62916C8.43193 6.62927 8.60447 6.70832 8.72311 6.84576C9.32303 7.54072 10.1416 7.99934 11.0331 8.15434ZM5.56465 9.4011C6.56209 9.25166 7.49562 8.81455 8.24946 8.14313C9.00288 8.81582 9.93644 9.25415 10.9343 9.40458C10.5764 10.5465 9.50995 11.375 8.25 11.375C6.98877 11.375 5.92144 10.5448 5.56465 9.4011Z" fill="#002E1F"/>
</svg>
