<svg width="24" height="25" viewBox="0 0 24 25" fill="none" xmlns="http://www.w3.org/2000/svg">
<path fill-rule="evenodd" clip-rule="evenodd" d="M5.64274 1.98729C5.8104 1.87042 6.0246 1.84289 6.21636 1.91359L17.3774 6.02825C17.386 6.03141 17.3944 6.03475 17.4029 6.03828C18.1303 6.34324 18.6252 7.03855 18.6252 7.83334C18.6252 8.62813 18.1303 9.32344 17.4029 9.6284C17.3944 9.63193 17.386 9.63527 17.3774 9.63842L6.62517 13.6024V22.5C6.62517 22.8452 6.34535 23.125 6.00017 23.125C5.65499 23.125 5.37517 22.8452 5.37517 22.5V13.1813C5.37494 13.1716 5.37494 13.1619 5.37517 13.1522V2.5C5.37517 2.29563 5.47509 2.10417 5.64274 1.98729ZM6.62517 12.2701L16.9304 8.47097C17.2164 8.34637 17.3752 8.08961 17.3752 7.83334C17.3752 7.57707 17.2164 7.32031 16.9304 7.19571L6.62517 3.39654V12.2701Z" fill="#002E1F"/>
</svg>
