<svg width="30" height="31" viewBox="0 0 30 31" fill="none" xmlns="http://www.w3.org/2000/svg">
<circle cx="15" cy="15.1313" r="14" fill="white" stroke="#71A300" stroke-width="2"/>
<circle cx="12.0834" cy="13.048" r="1.25" fill="#7FAF0D"/>
<circle cx="17.9166" cy="13.048" r="1.25" fill="#7FAF0D"/>
<path d="M20 17.6313C20 18.288 19.8707 18.9381 19.6194 19.5448C19.3681 20.1514 18.9998 20.7026 18.5355 21.1669C18.0712 21.6312 17.52 21.9995 16.9134 22.2507C16.3068 22.502 15.6566 22.6313 15 22.6313C14.3434 22.6313 13.6932 22.502 13.0866 22.2507C12.48 21.9995 11.9288 21.6312 11.4645 21.1669C11.0002 20.7026 10.6319 20.1514 10.3806 19.5448C10.1293 18.9381 10 18.288 10 17.6313L15 17.6313H20Z" stroke="#7FAF0D" stroke-width="2" stroke-linejoin="round"/>
</svg>
