<svg width="24" height="24" viewBox="0 0 24 24" fill="none" xmlns="http://www.w3.org/2000/svg"><g fill="#668c0a"><path d="M13.486 2.644h-.052l.063.01-.01-.01ZM17.842 14.114a.64.64 0 0 0-.644.644v5.32c0 .343-.281.613-.614.613H3.913a.614.614 0 0 1-.614-.613V7.423c0-.342.281-.613.614-.613h5.322a.64.64 0 0 0 .644-.644c0-.353-.29-.665-.644-.665H3.913C2.853 5.501 2 6.364 2 7.413v12.665C2 21.138 2.852 22 3.913 22h12.671c1.06 0 1.913-.862 1.913-1.912v-5.32a.652.652 0 0 0-.655-.654Z"/><path d="M22 2.571a1.086 1.086 0 0 0-.042-.176.686.686 0 0 0-.145-.208.687.687 0 0 0-.208-.145.663.663 0 0 0-.25-.042H14.08a.64.64 0 0 0-.645.644h.063v.01l-.063-.01c0 .364.281.655.645.655h5.707l-8.243 8.239a.652.652 0 0 0 0 .914c.25.25.665.25.914 0l8.244-8.239v5.704c.01.364.29.654.654.654A.64.64 0 0 0 22 9.927V2.571Z"/></g></svg>
