<svg width="24" height="24" viewBox="0 0 24 24" fill="none" xmlns="http://www.w3.org/2000/svg">
<path d="M17.0128 22C16.0233 22 15.0339 21.7199 14.1943 21.1798C14.1943 21.1798 14.1743 21.1698 14.1743 21.1598C9.67682 18.129 5.86893 14.3081 2.83062 9.80695C2.18098 8.77669 1.90113 7.57639 2.03106 6.3961C2.16099 5.2158 2.69069 4.10553 3.53023 3.26532L4.17987 2.61515C4.99941 1.79495 6.41863 1.79495 7.23817 2.61515L9.95667 5.33583C10.1566 5.53588 10.3165 5.77594 10.4264 6.03601C10.5363 6.29607 10.5963 6.57614 10.5963 6.86622C10.5963 7.15629 10.5264 7.43636 10.4164 7.70643C10.3065 7.96649 10.1466 8.20655 9.94668 8.4066C9.77677 8.57664 9.67683 8.8067 9.67683 9.05676C9.67683 9.30683 9.77677 9.53688 9.94668 9.70693L14.2943 14.058C14.3742 14.138 14.4742 14.2081 14.5941 14.2581C14.814 14.3481 15.0638 14.3481 15.2937 14.2581C15.4037 14.2081 15.5036 14.148 15.5935 14.058C16.3931 13.2578 17.8423 13.2578 18.6519 14.058L21.3703 16.7787C21.7801 17.1888 22 17.7289 22 18.3091C22 18.8892 21.7801 19.4294 21.3703 19.8395L20.7307 20.4896C19.8912 21.3298 18.7818 21.86 17.6024 21.99C17.3926 21.99 17.2027 22 17.0128 22ZM14.864 20.1195C15.6435 20.6097 16.553 20.8197 17.4425 20.7197C18.342 20.6197 19.1916 20.2196 19.8212 19.5794L20.4609 18.9392C20.6308 18.7692 20.7307 18.5391 20.7307 18.2891C20.7307 18.049 20.6408 17.819 20.4609 17.6389L17.7424 14.9282C17.4025 14.5881 16.7929 14.5881 16.4531 14.9282C16.2532 15.1283 16.0133 15.2883 15.7535 15.3983C15.2238 15.6184 14.6241 15.6184 14.0944 15.3983C13.8245 15.2883 13.5947 15.1283 13.3948 14.9282L9.05717 10.5771C8.65739 10.167 8.42752 9.62691 8.42752 9.04676C8.42752 8.46662 8.65739 7.92648 9.05717 7.51638C9.14712 7.42636 9.20708 7.32633 9.25706 7.2163C9.30703 7.10628 9.32702 6.98625 9.32702 6.86622C9.32702 6.74619 9.30703 6.63616 9.25706 6.52613C9.21708 6.4161 9.14712 6.31608 9.05717 6.22606L6.34867 3.50538C6.00886 3.16529 5.40919 3.16529 5.05938 3.50538L4.40974 4.15554C3.7701 4.7957 3.37032 5.63591 3.27037 6.53613C3.17043 7.43636 3.38031 8.34659 3.87004 9.11678C6.80841 13.4679 10.5064 17.1688 14.864 20.1195Z" fill="#668c0a"/>
</svg>
