<svg width="24" height="24" viewBox="0 0 24 24" fill="none" xmlns="http://www.w3.org/2000/svg">
<path fill-rule="evenodd" clip-rule="evenodd" d="M14.0619 18.622C14.3503 20.0499 15.6121 21.125 17.125 21.125C18.6368 21.125 19.8979 20.0514 20.1875 18.625H21.125C22.1605 18.625 23 17.7855 23 16.75V9.75C23 7.33375 21.0412 5.375 18.625 5.375H15.6433C15.3859 4.64675 14.6914 4.125 13.875 4.125H2.875C1.83947 4.125 1 4.96447 1 6V18C1 18.3452 1.27982 18.625 1.625 18.625H3.06251C3.35206 20.0514 4.61315 21.125 6.125 21.125C7.63685 21.125 8.89794 20.0514 9.18749 18.625H14C14.0209 18.625 14.0415 18.624 14.0619 18.622ZM15.75 6.625V13C15.75 13.3452 15.4702 13.625 15.125 13.625C14.7798 13.625 14.5 13.3452 14.5 13V6C14.5 5.65482 14.2202 5.375 13.875 5.375H2.875C2.52982 5.375 2.25 5.65482 2.25 6V17.375H3.06251C3.35206 15.9486 4.61315 14.875 6.125 14.875C7.63685 14.875 8.89794 15.9486 9.18749 17.375H14C14.0209 17.375 14.0415 17.376 14.0619 17.378C14.3503 15.9501 15.6121 14.875 17.125 14.875C18.6368 14.875 19.8979 15.9486 20.1875 17.375H21.125C21.4702 17.375 21.75 17.0952 21.75 16.75V13.625H19.875C18.8395 13.625 18 12.7855 18 11.75V6.625H15.75ZM8 18C8 16.9645 7.16053 16.125 6.125 16.125C5.08947 16.125 4.25 16.9645 4.25 18C4.25 19.0355 5.08947 19.875 6.125 19.875C7.16053 19.875 8 19.0355 8 18ZM19.25 11.75V6.68751C20.6764 6.97706 21.75 8.23815 21.75 9.75V12.375H19.875C19.5298 12.375 19.25 12.0952 19.25 11.75ZM19 18C19 16.9645 18.1605 16.125 17.125 16.125C16.0895 16.125 15.25 16.9645 15.25 18C15.25 19.0355 16.0895 19.875 17.125 19.875C18.1605 19.875 19 19.0355 19 18Z" fill="#002E1F"/>
</svg>
