<svg width="236" height="23" viewBox="0 0 236 23" fill="none" xmlns="http://www.w3.org/2000/svg">
<path d="M9.16797 18.096C7.83997 18.096 6.61597 17.888 5.49597 17.472C4.39197 17.04 3.42397 16.432 2.59196 15.648C1.77596 14.864 1.13596 13.944 0.671965 12.888C0.223965 11.832 -3.51369e-05 10.672 -3.51369e-05 9.40798C-3.51369e-05 8.14398 0.223965 6.98398 0.671965 5.92798C1.13596 4.87198 1.78396 3.95198 2.61596 3.16798C3.44796 2.38398 4.42396 1.78398 5.54397 1.36798C6.66396 0.935983 7.89597 0.719983 9.23997 0.719983C10.728 0.719983 12.064 0.967983 13.248 1.46398C14.448 1.95998 15.456 2.67998 16.272 3.62398L13.776 5.92798C13.168 5.28798 12.504 4.81598 11.784 4.51198C11.064 4.19198 10.28 4.03198 9.43197 4.03198C8.61597 4.03198 7.87197 4.15998 7.19997 4.41598C6.52797 4.67198 5.94397 5.03998 5.44796 5.51998C4.96797 5.99998 4.59197 6.56798 4.31997 7.22398C4.06397 7.87998 3.93597 8.60798 3.93597 9.40798C3.93597 10.192 4.06397 10.912 4.31997 11.568C4.59197 12.224 4.96797 12.8 5.44796 13.296C5.94397 13.776 6.51997 14.144 7.17597 14.4C7.84797 14.656 8.58397 14.784 9.38397 14.784C10.152 14.784 10.896 14.664 11.616 14.424C12.352 14.168 13.064 13.744 13.752 13.152L15.96 15.96C15.048 16.648 13.984 17.176 12.768 17.544C11.568 17.912 10.368 18.096 9.16797 18.096ZM12.408 15.456V9.14398H15.96V15.96L12.408 15.456ZM19.3076 17.808V-1.7643e-05H23.0516V17.808H19.3076ZM32.6703 18C31.2943 18 30.0703 17.712 28.9983 17.136C27.9423 16.56 27.1023 15.776 26.4783 14.784C25.8703 13.776 25.5663 12.632 25.5663 11.352C25.5663 10.056 25.8703 8.91198 26.4783 7.91998C27.1023 6.91198 27.9423 6.12798 28.9983 5.56798C30.0703 4.99198 31.2943 4.70398 32.6703 4.70398C34.0303 4.70398 35.2463 4.99198 36.3183 5.56798C37.3903 6.12798 38.2303 6.90398 38.8383 7.89598C39.4463 8.88798 39.7503 10.04 39.7503 11.352C39.7503 12.632 39.4463 13.776 38.8383 14.784C38.2303 15.776 37.3903 16.56 36.3183 17.136C35.2463 17.712 34.0303 18 32.6703 18ZM32.6703 14.928C33.2943 14.928 33.8543 14.784 34.3503 14.496C34.8463 14.208 35.2383 13.8 35.5263 13.272C35.8143 12.728 35.9583 12.088 35.9583 11.352C35.9583 10.6 35.8143 9.95998 35.5263 9.43198C35.2383 8.90398 34.8463 8.49598 34.3503 8.20798C33.8543 7.91998 33.2943 7.77598 32.6703 7.77598C32.0463 7.77598 31.4863 7.91998 30.9903 8.20798C30.4943 8.49598 30.0943 8.90398 29.7903 9.43198C29.5023 9.95998 29.3583 10.6 29.3583 11.352C29.3583 12.088 29.5023 12.728 29.7903 13.272C30.0943 13.8 30.4943 14.208 30.9903 14.496C31.4863 14.784 32.0463 14.928 32.6703 14.928ZM49.8849 18C48.7489 18 47.7729 17.76 46.9569 17.28C46.1409 16.8 45.5169 16.072 45.0849 15.096C44.6529 14.104 44.4369 12.856 44.4369 11.352C44.4369 9.83198 44.6609 8.58398 45.1089 7.60798C45.5729 6.63198 46.2129 5.90398 47.0289 5.42398C47.8449 4.94398 48.7969 4.70398 49.8849 4.70398C51.1009 4.70398 52.1889 4.97598 53.1489 5.51998C54.1249 6.06398 54.8929 6.83198 55.4529 7.82398C56.0289 8.81598 56.3169 9.99198 56.3169 11.352C56.3169 12.696 56.0289 13.864 55.4529 14.856C54.8929 15.848 54.1249 16.624 53.1489 17.184C52.1889 17.728 51.1009 18 49.8849 18ZM42.2529 17.808V-1.7643e-05H45.9969V7.51198L45.7569 11.328L45.8289 15.168V17.808H42.2529ZM49.2369 14.928C49.8609 14.928 50.4129 14.784 50.8929 14.496C51.3889 14.208 51.7809 13.8 52.0689 13.272C52.3729 12.728 52.5249 12.088 52.5249 11.352C52.5249 10.6 52.3729 9.95998 52.0689 9.43198C51.7809 8.90398 51.3889 8.49598 50.8929 8.20798C50.4129 7.91998 49.8609 7.77598 49.2369 7.77598C48.6129 7.77598 48.0529 7.91998 47.5569 8.20798C47.0609 8.49598 46.6689 8.90398 46.3809 9.43198C46.0929 9.95998 45.9489 10.6 45.9489 11.352C45.9489 12.088 46.0929 12.728 46.3809 13.272C46.6689 13.8 47.0609 14.208 47.5569 14.496C48.0529 14.784 48.6129 14.928 49.2369 14.928ZM66.5323 17.808V15.288L66.2923 14.736V10.224C66.2923 9.42398 66.0443 8.79998 65.5483 8.35198C65.0683 7.90398 64.3243 7.67998 63.3163 7.67998C62.6283 7.67998 61.9483 7.79198 61.2763 8.01598C60.6203 8.22398 60.0603 8.51198 59.5963 8.87998L58.2523 6.26398C58.9563 5.76798 59.8043 5.38398 60.7963 5.11198C61.7883 4.83998 62.7963 4.70398 63.8203 4.70398C65.7883 4.70398 67.3163 5.16798 68.4043 6.09598C69.4923 7.02398 70.0363 8.47198 70.0363 10.44V17.808H66.5323ZM62.5963 18C61.5883 18 60.7243 17.832 60.0043 17.496C59.2843 17.144 58.7323 16.672 58.3483 16.08C57.9643 15.488 57.7723 14.824 57.7723 14.088C57.7723 13.32 57.9563 12.648 58.3243 12.072C58.7083 11.496 59.3083 11.048 60.1243 10.728C60.9403 10.392 62.0043 10.224 63.3163 10.224H66.7483V12.408H63.7243C62.8443 12.408 62.2363 12.552 61.9003 12.84C61.5803 13.128 61.4203 13.488 61.4203 13.92C61.4203 14.4 61.6043 14.784 61.9723 15.072C62.3563 15.344 62.8763 15.48 63.5323 15.48C64.1563 15.48 64.7163 15.336 65.2123 15.048C65.7083 14.744 66.0683 14.304 66.2923 13.728L66.8683 15.456C66.5963 16.288 66.1003 16.92 65.3803 17.352C64.6603 17.784 63.7323 18 62.5963 18ZM73.4248 17.808V-1.7643e-05H77.1688V17.808H73.4248Z" fill="white"/>
<path d="M93.1284 18C91.8484 18 90.6244 17.808 89.4564 17.424C88.2884 17.024 87.3684 16.512 86.6964 15.888L87.5844 14.016C88.2244 14.576 89.0404 15.04 90.0324 15.408C91.0244 15.776 92.0564 15.96 93.1284 15.96C94.1044 15.96 94.8964 15.848 95.5044 15.624C96.1124 15.4 96.5604 15.096 96.8484 14.712C97.1364 14.312 97.2804 13.864 97.2804 13.368C97.2804 12.792 97.0884 12.328 96.7044 11.976C96.3364 11.624 95.8484 11.344 95.2404 11.136C94.6484 10.912 93.9924 10.72 93.2724 10.56C92.5524 10.4 91.8244 10.216 91.0884 10.008C90.3684 9.78398 89.7044 9.50398 89.0964 9.16798C88.5044 8.83198 88.0244 8.38398 87.6564 7.82398C87.2884 7.24798 87.1044 6.51198 87.1044 5.61598C87.1044 4.75198 87.3284 3.95998 87.7764 3.23998C88.2404 2.50398 88.9444 1.91998 89.8884 1.48798C90.8484 1.03998 92.0644 0.815983 93.5364 0.815983C94.5124 0.815983 95.4804 0.943983 96.4404 1.19998C97.4004 1.45598 98.2324 1.82398 98.9364 2.30398L98.1444 4.22398C97.4244 3.74398 96.6644 3.39998 95.8644 3.19198C95.0644 2.96798 94.2884 2.85598 93.5364 2.85598C92.5924 2.85598 91.8164 2.97598 91.2084 3.21598C90.6004 3.45598 90.1524 3.77598 89.8644 4.17598C89.5924 4.57598 89.4564 5.02398 89.4564 5.51998C89.4564 6.11198 89.6404 6.58398 90.0084 6.93598C90.3924 7.28798 90.8804 7.56798 91.4724 7.77598C92.0804 7.98398 92.7444 8.17598 93.4644 8.35198C94.1844 8.51198 94.9044 8.69598 95.6244 8.90398C96.3604 9.11198 97.0244 9.38398 97.6164 9.71998C98.2244 10.056 98.7124 10.504 99.0804 11.064C99.4484 11.624 99.6324 12.344 99.6324 13.224C99.6324 14.072 99.4004 14.864 98.9364 15.6C98.4724 16.32 97.7524 16.904 96.7764 17.352C95.8164 17.784 94.6004 18 93.1284 18ZM108.251 17.952C106.971 17.952 105.835 17.672 104.843 17.112C103.851 16.552 103.067 15.784 102.491 14.808C101.915 13.816 101.627 12.696 101.627 11.448C101.627 10.184 101.915 9.06398 102.491 8.08798C103.067 7.11198 103.851 6.35198 104.843 5.80798C105.835 5.24798 106.971 4.96798 108.251 4.96798C109.515 4.96798 110.643 5.24798 111.635 5.80798C112.643 6.35198 113.427 7.11198 113.987 8.08798C114.563 9.04798 114.851 10.168 114.851 11.448C114.851 12.712 114.563 13.832 113.987 14.808C113.427 15.784 112.643 16.552 111.635 17.112C110.643 17.672 109.515 17.952 108.251 17.952ZM108.251 15.936C109.067 15.936 109.795 15.752 110.435 15.384C111.091 15.016 111.603 14.496 111.971 13.824C112.339 13.136 112.523 12.344 112.523 11.448C112.523 10.536 112.339 9.75198 111.971 9.09598C111.603 8.42398 111.091 7.90398 110.435 7.53598C109.795 7.16798 109.067 6.98398 108.251 6.98398C107.435 6.98398 106.707 7.16798 106.067 7.53598C105.427 7.90398 104.915 8.42398 104.531 9.09598C104.147 9.75198 103.955 10.536 103.955 11.448C103.955 12.344 104.147 13.136 104.531 13.824C104.915 14.496 105.427 15.016 106.067 15.384C106.707 15.752 107.435 15.936 108.251 15.936ZM123.389 17.952C122.301 17.952 121.341 17.752 120.509 17.352C119.693 16.952 119.053 16.344 118.589 15.528C118.141 14.696 117.917 13.656 117.917 12.408V5.08798H120.221V12.144C120.221 13.392 120.517 14.328 121.109 14.952C121.717 15.576 122.565 15.888 123.653 15.888C124.453 15.888 125.149 15.728 125.741 15.408C126.333 15.072 126.789 14.592 127.109 13.968C127.429 13.328 127.589 12.56 127.589 11.664V5.08798H129.893V17.808H127.709V14.376L128.069 15.288C127.653 16.136 127.029 16.792 126.197 17.256C125.365 17.72 124.429 17.952 123.389 17.952ZM134.279 17.808V5.08798H136.487V8.54398L136.271 7.67998C136.623 6.79998 137.215 6.12798 138.047 5.66398C138.879 5.19998 139.903 4.96798 141.119 4.96798V7.19998C141.023 7.18398 140.927 7.17598 140.831 7.17598C140.751 7.17598 140.671 7.17598 140.591 7.17598C139.359 7.17598 138.383 7.54398 137.663 8.27998C136.943 9.01598 136.583 10.08 136.583 11.472V17.808H134.279ZM149.386 17.952C148.09 17.952 146.93 17.672 145.906 17.112C144.898 16.552 144.106 15.784 143.53 14.808C142.954 13.832 142.666 12.712 142.666 11.448C142.666 10.184 142.954 9.06398 143.53 8.08798C144.106 7.11198 144.898 6.35198 145.906 5.80798C146.93 5.24798 148.09 4.96798 149.386 4.96798C150.538 4.96798 151.562 5.19998 152.458 5.66398C153.37 6.11198 154.074 6.78398 154.57 7.67998L152.818 8.80798C152.402 8.18398 151.89 7.72798 151.282 7.43998C150.69 7.13598 150.05 6.98398 149.362 6.98398C148.53 6.98398 147.786 7.16798 147.13 7.53598C146.474 7.90398 145.954 8.42398 145.57 9.09598C145.186 9.75198 144.994 10.536 144.994 11.448C144.994 12.36 145.186 13.152 145.57 13.824C145.954 14.496 146.474 15.016 147.13 15.384C147.786 15.752 148.53 15.936 149.362 15.936C150.05 15.936 150.69 15.792 151.282 15.504C151.89 15.2 152.402 14.736 152.818 14.112L154.57 15.216C154.074 16.096 153.37 16.776 152.458 17.256C151.562 17.72 150.538 17.952 149.386 17.952ZM163.029 17.952C161.669 17.952 160.469 17.672 159.429 17.112C158.405 16.552 157.605 15.784 157.029 14.808C156.469 13.832 156.189 12.712 156.189 11.448C156.189 10.184 156.461 9.06398 157.005 8.08798C157.565 7.11198 158.325 6.35198 159.285 5.80798C160.261 5.24798 161.357 4.96798 162.573 4.96798C163.805 4.96798 164.893 5.23998 165.837 5.78398C166.781 6.32798 167.517 7.09598 168.045 8.08798C168.589 9.06398 168.861 10.208 168.861 11.52C168.861 11.616 168.853 11.728 168.837 11.856C168.837 11.984 168.829 12.104 168.813 12.216H157.989V10.56H167.613L166.677 11.136C166.693 10.32 166.525 9.59198 166.173 8.95198C165.821 8.31198 165.333 7.81598 164.709 7.46398C164.101 7.09598 163.389 6.91198 162.573 6.91198C161.773 6.91198 161.061 7.09598 160.437 7.46398C159.813 7.81598 159.325 8.31998 158.973 8.97598C158.621 9.61598 158.445 10.352 158.445 11.184V11.568C158.445 12.416 158.637 13.176 159.021 13.848C159.421 14.504 159.973 15.016 160.677 15.384C161.381 15.752 162.189 15.936 163.101 15.936C163.853 15.936 164.533 15.808 165.141 15.552C165.765 15.296 166.309 14.912 166.773 14.4L168.045 15.888C167.469 16.56 166.749 17.072 165.885 17.424C165.037 17.776 164.085 17.952 163.029 17.952ZM181.026 8.25598H189.666V10.296H181.026V8.25598ZM181.242 15.72H191.034V17.808H178.842V1.00798H190.698V3.09598H181.242V15.72ZM192.455 17.808L197.927 10.704L197.903 11.88L192.695 5.08798H195.263L199.247 10.32H198.263L202.247 5.08798H204.767L199.487 11.928L199.511 10.704L205.031 17.808H202.415L198.215 12.24L199.151 12.384L195.023 17.808H192.455ZM214.289 17.952C213.233 17.952 212.265 17.712 211.385 17.232C210.521 16.736 209.825 16.008 209.297 15.048C208.785 14.088 208.529 12.888 208.529 11.448C208.529 10.008 208.777 8.80798 209.273 7.84798C209.785 6.88798 210.473 6.16798 211.337 5.68798C212.217 5.20798 213.201 4.96798 214.289 4.96798C215.537 4.96798 216.641 5.23998 217.601 5.78398C218.561 6.32798 219.321 7.08798 219.881 8.06398C220.441 9.02398 220.721 10.152 220.721 11.448C220.721 12.744 220.441 13.88 219.881 14.856C219.321 15.832 218.561 16.592 217.601 17.136C216.641 17.68 215.537 17.952 214.289 17.952ZM207.545 22.464V5.08798H209.753V8.51998L209.609 11.472L209.849 14.424V22.464H207.545ZM214.097 15.936C214.913 15.936 215.641 15.752 216.281 15.384C216.937 15.016 217.449 14.496 217.817 13.824C218.201 13.136 218.393 12.344 218.393 11.448C218.393 10.536 218.201 9.75198 217.817 9.09598C217.449 8.42398 216.937 7.90398 216.281 7.53598C215.641 7.16798 214.913 6.98398 214.097 6.98398C213.297 6.98398 212.569 7.16798 211.913 7.53598C211.273 7.90398 210.761 8.42398 210.377 9.09598C210.009 9.75198 209.825 10.536 209.825 11.448C209.825 12.344 210.009 13.136 210.377 13.824C210.761 14.496 211.273 15.016 211.913 15.384C212.569 15.752 213.297 15.936 214.097 15.936ZM229.352 17.952C228.072 17.952 226.936 17.672 225.944 17.112C224.952 16.552 224.168 15.784 223.592 14.808C223.016 13.816 222.728 12.696 222.728 11.448C222.728 10.184 223.016 9.06398 223.592 8.08798C224.168 7.11198 224.952 6.35198 225.944 5.80798C226.936 5.24798 228.072 4.96798 229.352 4.96798C230.616 4.96798 231.744 5.24798 232.736 5.80798C233.744 6.35198 234.528 7.11198 235.088 8.08798C235.664 9.04798 235.952 10.168 235.952 11.448C235.952 12.712 235.664 13.832 235.088 14.808C234.528 15.784 233.744 16.552 232.736 17.112C231.744 17.672 230.616 17.952 229.352 17.952ZM229.352 15.936C230.168 15.936 230.896 15.752 231.536 15.384C232.192 15.016 232.704 14.496 233.072 13.824C233.44 13.136 233.624 12.344 233.624 11.448C233.624 10.536 233.44 9.75198 233.072 9.09598C232.704 8.42398 232.192 7.90398 231.536 7.53598C230.896 7.16798 230.168 6.98398 229.352 6.98398C228.536 6.98398 227.808 7.16798 227.168 7.53598C226.528 7.90398 226.016 8.42398 225.632 9.09598C225.248 9.75198 225.056 10.536 225.056 11.448C225.056 12.344 225.248 13.136 225.632 13.824C226.016 14.496 226.528 15.016 227.168 15.384C227.808 15.752 228.536 15.936 229.352 15.936Z" fill="#7FAF0D"/>
</svg>
