<svg width="177" height="44" viewBox="0 0 177 44" fill="none" xmlns="http://www.w3.org/2000/svg">
<path d="M46.4297 16.4199V13.665H59.4082V16.4199H54.5702V29.4661H51.2677V16.4199H46.4297Z" fill="white"/>
<path d="M66.8884 29.6974C65.6761 29.6974 64.6303 29.449 63.7497 28.9523C62.869 28.4555 62.1916 27.7526 61.7174 26.8409C61.246 25.9264 61.0117 24.8453 61.0117 23.5949C61.0117 22.3755 61.246 21.3072 61.7174 20.3884C62.1916 19.4668 62.8591 18.7484 63.7214 18.2319C64.5823 17.7168 65.5957 17.4585 66.7586 17.4585C67.8002 17.4585 68.7415 17.6815 69.5812 18.1246C70.4238 18.565 71.0913 19.2339 71.5853 20.1287C72.0821 21.0207 72.3305 22.137 72.3305 23.4764V24.3796H64.2577V24.3909C64.2577 25.2758 64.4977 25.9716 64.9803 26.4796C65.4658 26.9877 66.1207 27.2417 66.9449 27.2417C67.4939 27.2417 67.9681 27.1274 68.3675 26.8974C68.7697 26.6645 69.0534 26.3216 69.2199 25.8699L72.2571 26.0732C72.027 27.1726 71.4413 28.0518 70.5014 28.7095C69.5601 29.3686 68.3562 29.6974 66.8884 29.6974ZM64.2577 22.3417H69.2369C69.2284 21.6388 69.0012 21.0588 68.5538 20.6029C68.105 20.1442 67.5235 19.9142 66.8094 19.9142C66.0783 19.9142 65.4799 20.1513 65.0142 20.6255C64.5471 21.0969 64.2944 21.6685 64.2577 22.3417Z" fill="white"/>
<path d="M84.335 20.9924L81.3261 21.1787C81.2428 20.7991 81.034 20.4731 80.6995 20.2021C80.3678 19.9283 79.9162 19.79 79.3446 19.79C78.8366 19.79 78.4047 19.8973 78.0519 20.1118C77.6976 20.3235 77.524 20.6071 77.5325 20.9642C77.524 21.2465 77.6355 21.4864 77.8656 21.6812C78.0942 21.8773 78.4837 22.034 79.0341 22.1497L81.1793 22.5844C83.46 23.0515 84.6018 24.1199 84.606 25.7909C84.606 26.57 84.3774 27.253 83.9229 27.8401C83.4671 28.4244 82.8419 28.8789 82.0487 29.2063C81.2584 29.5337 80.3509 29.6974 79.3277 29.6974C77.7583 29.6974 76.5065 29.37 75.5736 28.7152C74.6435 28.0575 74.1016 27.1627 73.9478 26.0337L77.1825 25.8643C77.2841 26.347 77.5212 26.7111 77.8938 26.9595C78.2692 27.2051 78.7491 27.3264 79.3333 27.3264C79.912 27.3264 80.3777 27.2135 80.7277 26.9877C81.0805 26.7619 81.2598 26.474 81.264 26.124C81.2485 25.5369 80.7418 25.1445 79.7454 24.9441L77.6906 24.5377C75.3986 24.079 74.2554 22.9499 74.2639 21.1505C74.2597 20.0073 74.7169 19.1055 75.6357 18.4464C76.553 17.7887 77.771 17.4585 79.2882 17.4585C80.7856 17.4585 81.9654 17.7746 82.8278 18.4069C83.6887 19.0392 84.1911 19.9015 84.335 20.9924Z" fill="white"/>
<path d="M92.9823 17.6164V20.0834H90.7524V25.8246C90.7524 26.2763 90.854 26.5839 91.0573 26.7448C91.2633 26.9029 91.5329 26.9819 91.8645 26.9819C92.0184 26.9819 92.1722 26.9692 92.3274 26.9424C92.4813 26.9128 92.5998 26.8902 92.6831 26.8747L93.1968 29.3191C93.0345 29.3727 92.8031 29.432 92.5024 29.4997C92.2047 29.5703 91.8434 29.614 91.4186 29.6296C90.2218 29.6775 89.2621 29.4193 88.5395 28.8505C87.8169 28.2832 87.4584 27.4166 87.4669 26.2537V20.0834H85.8467V17.6164H87.4669V14.7769H90.7524V17.6164H92.9823Z" fill="white"/>
<path d="M95.1177 29.4661V17.6166H98.4089V29.4661H95.1177ZM96.6081 16.0868C96.1254 16.0868 95.7105 15.9231 95.3605 15.5956C95.0105 15.2682 94.8354 14.8773 94.8354 14.4214C94.8354 13.9627 95.0105 13.5718 95.3605 13.2472C95.7105 12.924 96.1254 12.7617 96.6081 12.7617C97.0964 12.7617 97.5169 12.924 97.867 13.2472C98.217 13.5718 98.392 13.9627 98.392 14.4214C98.392 14.8773 98.217 15.2682 97.867 15.5956C97.5169 15.9231 97.0964 16.0868 96.6081 16.0868Z" fill="white"/>
<path d="M101.025 29.466V17.6166H104.159V19.7053H104.3C104.548 19.0053 104.96 18.4563 105.536 18.0569C106.115 17.6589 106.803 17.4585 107.602 17.4585C108.415 17.4585 109.105 17.6617 109.674 18.0682C110.246 18.4718 110.628 19.0166 110.82 19.7053H110.944C111.184 19.0279 111.623 18.4845 112.259 18.0738C112.895 17.6645 113.648 17.4585 114.518 17.4585C115.62 17.4585 116.517 17.8113 117.21 18.5142C117.902 19.2142 118.249 20.2077 118.249 21.4949V29.466H114.969V22.1441C114.969 21.4864 114.794 20.9924 114.444 20.665C114.094 20.3348 113.657 20.1682 113.134 20.1682C112.536 20.1682 112.069 20.3588 111.734 20.7384C111.403 21.1195 111.238 21.6162 111.238 22.2287V29.466H108.048V22.0763C108.048 21.4935 107.882 21.0305 107.551 20.6876C107.22 20.3418 106.784 20.1682 106.242 20.1682C105.695 20.1682 105.238 20.3686 104.87 20.7666C104.5 21.166 104.317 21.6953 104.317 22.3529V29.466H101.025Z" fill="white"/>
<path d="M126.198 29.6974C124.997 29.6974 123.96 29.442 123.088 28.9297C122.218 28.4188 121.547 27.7032 121.072 26.7845C120.601 25.8671 120.367 24.8002 120.367 23.5836C120.367 22.3614 120.601 21.2902 121.072 20.3715C121.547 19.4541 122.218 18.7386 123.088 18.2263C123.96 17.7154 124.997 17.4585 126.198 17.4585C127.395 17.4585 128.43 17.7154 129.303 18.2263C130.175 18.7386 130.847 19.4541 131.319 20.3715C131.793 21.2902 132.03 22.3614 132.03 23.5836C132.03 24.8002 131.793 25.8671 131.319 26.7845C130.847 27.7032 130.175 28.4188 129.303 28.9297C128.43 29.442 127.395 29.6974 126.198 29.6974ZM126.215 27.1514C127.028 27.1514 127.643 26.8127 128.061 26.1353C128.479 25.455 128.688 24.5969 128.688 23.561C128.688 22.5308 128.479 21.6741 128.061 20.9924C127.643 20.3079 127.028 19.965 126.215 19.965C125.387 19.965 124.76 20.3079 124.335 20.9924C123.913 21.6741 123.703 22.5308 123.703 23.561C123.703 24.5969 123.913 25.455 124.335 26.1353C124.76 26.8127 125.387 27.1514 126.215 27.1514Z" fill="white"/>
<path d="M137.465 22.6126V29.466H134.173V17.6166H137.306V19.7053H137.448C137.714 19.0166 138.155 18.4718 138.769 18.0682C139.385 17.6617 140.132 17.4585 141.01 17.4585C142.243 17.4585 143.234 17.8579 143.979 18.6553C144.727 19.4499 145.103 20.538 145.103 21.9183V29.466H141.817V22.5054C141.82 21.7799 141.634 21.2126 141.258 20.8061C140.881 20.3969 140.363 20.1908 139.706 20.1908C139.042 20.1908 138.505 20.4039 138.091 20.8287C137.676 21.2549 137.467 21.8491 137.465 22.6126Z" fill="white"/>
<path d="M147.68 29.4661V17.6166H150.971V29.4661H147.68ZM149.171 16.0868C148.688 16.0868 148.273 15.9231 147.923 15.5956C147.573 15.2682 147.398 14.8773 147.398 14.4214C147.398 13.9627 147.573 13.5718 147.923 13.2472C148.273 12.924 148.688 12.7617 149.171 12.7617C149.659 12.7617 150.079 12.924 150.429 13.2472C150.779 13.5718 150.954 13.9627 150.954 14.4214C150.954 14.8773 150.779 15.2682 150.429 15.5956C150.079 15.9231 149.659 16.0868 149.171 16.0868Z" fill="white"/>
<path d="M156.97 29.6918C155.837 29.6918 154.899 29.3968 154.153 28.8055C153.408 28.2113 153.036 27.3292 153.036 26.1579C153.036 25.2744 153.242 24.58 153.657 24.0747C154.074 23.5709 154.622 23.2026 155.299 22.9683C155.977 22.7312 156.706 22.5773 157.49 22.5054C158.517 22.4037 159.251 22.2965 159.691 22.1836C160.135 22.0707 160.358 21.8223 160.358 21.4384V21.3932C160.358 20.9049 160.202 20.5267 159.895 20.2585C159.59 19.9918 159.157 19.8577 158.596 19.8577C158.005 19.8577 157.535 19.9876 157.185 20.2473C156.835 20.5041 156.603 20.8287 156.491 21.2239L153.453 20.9755C153.679 19.8958 154.239 19.0392 155.136 18.4069C156.035 17.7746 157.193 17.4585 158.613 17.4585C159.494 17.4585 160.315 17.5982 161.08 17.8762C161.848 18.1557 162.466 18.5904 162.937 19.1803C163.407 19.7674 163.643 20.5323 163.643 21.4723V29.466H160.527V27.8232H160.437C160.146 28.3736 159.714 28.8224 159.138 29.1724C158.565 29.5182 157.843 29.6918 156.97 29.6918ZM157.913 27.4224C158.632 27.4224 159.223 27.2135 159.686 26.7958C160.149 26.3752 160.38 25.853 160.38 25.232V23.9731C160.252 24.0606 160.053 24.1368 159.782 24.2046C159.511 24.2723 159.223 24.3316 158.918 24.3796C158.613 24.429 158.339 24.4699 158.099 24.5038C157.524 24.5871 157.058 24.7494 156.705 24.9893C156.351 25.2306 156.174 25.582 156.174 26.0449C156.174 26.5008 156.338 26.8452 156.666 27.078C156.993 27.3081 157.408 27.4224 157.913 27.4224Z" fill="white"/>
<path d="M169.49 13.665V29.4661H166.199V13.665H169.49Z" fill="white"/>
<path d="M20.9863 5.03711C11.7845 5.03711 4.32568 12.4973 4.32568 21.6977C4.32568 30.8995 11.7845 38.3583 20.9863 38.3583C30.1866 38.3583 37.6469 30.8981 37.6469 21.6977C37.6469 12.4973 30.1866 5.03711 20.9863 5.03711ZM16.9047 26.1716C16.9047 27.072 16.1751 27.8002 15.2761 27.8002C14.3757 27.8002 13.6474 27.072 13.6474 26.1716V19.2279C13.6474 18.3275 14.3757 17.5978 15.2761 17.5978C16.1751 17.5978 16.9047 18.3275 16.9047 19.2279V26.1716ZM28.4098 26.0544C28.4098 27.3274 27.666 27.7833 26.393 27.7833H20.5361C19.2631 27.7833 18.2314 26.7516 18.2314 25.4786V19.7176C18.2314 19.7176 18.1171 18.7593 19.1784 17.8589C19.7782 17.3494 20.6687 16.377 21.2911 15.1972C22.5274 12.853 23.267 12.1699 23.8301 12.3534C25.916 13.0294 24.873 16.1216 24.1998 17.4129H26.1051C27.3767 17.4129 28.4098 18.4446 28.4098 19.7176V26.0544Z" fill="white"/>
</svg>
